<?xml version="1.0" encoding="UTF-8" standalone="no"?>
<!-- Created with Inkscape (http://www.inkscape.org/) -->

<svg
   xmlns:dc="http://purl.org/dc/elements/1.1/"
   xmlns:cc="http://creativecommons.org/ns#"
   xmlns:rdf="http://www.w3.org/1999/02/22-rdf-syntax-ns#"
   xmlns:svg="http://www.w3.org/2000/svg"
   xmlns="http://www.w3.org/2000/svg"
   version="1.1"
   width="100"
   height="100"
   id="svg2">
  <defs
     id="defs4" />
  <metadata
     id="metadata7">
    <rdf:RDF>
      <cc:Work
         rdf:about="">
        <dc:format>image/svg+xml</dc:format>
        <dc:type
           rdf:resource="http://purl.org/dc/dcmitype/StillImage" />
        <dc:title></dc:title>
      </cc:Work>
    </rdf:RDF>
  </metadata>
  <g
     transform="translate(0,-952.36218)"
     id="layer1">
    <g
       transform="matrix(1.1049724,0,0,1.1049724,-4.6961338,947.66605)"
       id="Layer_2_copy">
      <circle
         cx="49.5"
         cy="49.5"
         r="45.25"
         id="circle3119" />
      <path
         d="m 49.5,88.286 c -21.386,0 -38.785,-17.4 -38.785,-38.787 0,-21.386 17.399,-38.785 38.785,-38.785 21.387,0 38.786,17.399 38.786,38.785 C 88.285,70.886 70.887,88.286 49.5,88.286 l 0,0 z"
         id="path3121" />
      <path
         d="m 49.5,8.128 c 22.849,0 41.371,18.522 41.371,41.371 0,22.848 -18.522,41.372 -41.371,41.372 C 26.65,90.871 8.129,72.348 8.129,49.499 8.128,26.651 26.65,8.128 49.5,8.128 m 0,5.172 c -19.961,0 -36.2,16.239 -36.2,36.2 0,19.961 16.239,36.2 36.2,36.2 19.961,0 36.2,-16.238 36.2,-36.2 0,-19.961 -16.239,-36.2 -36.2,-36.2 l 0,0 z"
         id="path3123"
         style="fill:#ffffff" />
    </g>
    <g
       transform="matrix(1.1049724,0,0,1.1049724,-5.0790067,948.32571)"
       id="Layer_1_copy">
      <g
         id="g3126">
        <path
           d="m 87.75,50.75 c 0,-3.116 -2.457,-7.387 -3.201,-10.273 L 34.895,12.807 10.818,56.014 60.82,83.877 C 72.75,84 87.75,66.758 87.75,50.75 z"
           id="path3128"
           style="fill:#ffffff;stroke:#000000;stroke-width:3" />
      </g>
      <polygon
         points="60.674,43.697 73.75,80.25 63.062,84.999 11.149,55.988 "
         id="polygon3130"
         style="fill:#ffffff;stroke:#000000;stroke-width:3;stroke-linecap:round;stroke-linejoin:round" />
      <g
         id="g3132">
        <path
           d="m 52.361,62.941 34.704,-7.516 c 0.191,-1.506 1.81,-2.746 1.81,-4.301 0,-3.105 -0.012,-5.373 -0.75,-8.25 L 36.759,14.356 52.361,62.941 z"
           id="path3134"
           style="fill:#ffffff;stroke:#000000;stroke-width:3" />
      </g>
    </g>
    <g
       transform="matrix(1.1049724,0,0,1.1049724,-6.7966863,947.58649)"
       id="Layer_5">
      <g
         id="g3137">
        <path
           d="m 17.737,66.833 c 3.515,6.415 8.908,11.66 15.444,14.975 C 38.087,84.296 43.633,85.7 49.5,85.7 69.461,85.7 85.7,69.462 85.7,49.5 85.7,39.135 81.321,29.773 74.316,23.167 68.59,17.769 61.11,14.216 52.833,13.457 V 66.833 H 17.737 z"
           id="path3139"
           style="fill:none" />
        <path
           d="M 78.589,20.082 C 71.855,13.423 62.845,9.072 52.833,8.273 v 5.183 c 8.277,0.759 15.758,4.312 21.483,9.71 C 81.321,29.772 85.7,39.134 85.7,49.5 85.7,69.461 69.461,85.7 49.5,85.7 43.633,85.7 38.087,84.297 33.181,81.808 26.645,78.494 21.252,73.248 17.737,66.833 h -5.806 c 3.992,8.637 10.868,15.668 19.4,19.845 5.484,2.686 11.65,4.193 18.169,4.193 22.849,0 41.371,-18.523 41.371,-41.372 0,-11.507 -4.698,-21.918 -12.282,-29.417 z"
           id="path3141"
           style="fill:#ffffff" />
      </g>
    </g>
  </g>
</svg>
